<?xml version="1.0" standalone="no"?>
<!DOCTYPE svg PUBLIC "-//W3C//DTD SVG 20010904//EN"
 "http://www.w3.org/TR/2001/REC-SVG-20010904/DTD/svg10.dtd">
<svg version="1.0" xmlns="http://www.w3.org/2000/svg"
 width="400.000000pt" height="400.000000pt" viewBox="0 0 400.000000 400.000000"
 preserveAspectRatio="xMidYMid meet">
<metadata>
Created by potrace 1.14, written by Peter Selinger 2001-2017
</metadata>
<g transform="translate(0.000000,400.000000) scale(0.100000,-0.100000)"
fill="#000000" stroke="none">
<path d="M3753 3893 c-29 -26 -89 -104 -97 -128 -22 -59 -88 -306 -121 -455
-18 -83 -78 -361 -81 -380 -3 -14 -7 -32 -9 -40 -2 -8 -7 -31 -10 -50 -3 -19
-17 -93 -31 -165 -14 -71 -28 -141 -30 -155 -54 -293 -126 -669 -165 -865 -65
-317 -65 -319 -44 -364 25 -55 60 -76 125 -76 84 0 130 46 144 145 3 19 21
132 41 250 20 118 38 229 41 245 2 17 9 55 14 85 10 60 16 97 24 150 12 85 59
385 76 490 10 63 21 129 24 145 27 171 54 326 101 580 3 17 10 53 16 80 6 28
12 60 15 73 7 38 13 66 18 87 2 11 11 48 19 83 23 96 10 254 -23 272 -24 13
-24 13 -47 -7z"/>
<path d="M1566 3591 c-20 -22 -25 -44 -31 -141 -3 -41 -7 -93 -9 -115 -3 -22
-8 -67 -11 -100 -3 -33 -8 -78 -10 -100 -2 -22 -7 -65 -10 -95 -3 -30 -7 -75
-10 -100 -3 -25 -7 -70 -10 -100 -8 -79 -14 -138 -20 -195 -3 -27 -7 -75 -10
-105 -5 -51 -7 -74 -20 -190 -3 -25 -10 -94 -15 -155 -6 -60 -13 -123 -15
-140 -2 -16 -7 -57 -10 -90 -4 -33 -8 -71 -10 -85 -2 -14 -6 -47 -9 -75 -4
-29 -13 -55 -22 -62 -32 -24 -520 -197 -612 -217 l-32 -8 5 54 c2 29 7 143 10
253 4 110 8 254 10 320 2 66 7 197 9 290 10 325 18 530 21 565 2 19 6 73 10
120 13 154 14 163 35 182 11 10 21 29 21 41 1 12 3 47 4 77 5 95 -14 128 -83
143 -18 4 -33 -4 -60 -31 -35 -35 -40 -48 -70 -182 -51 -223 -88 -404 -98
-475 -3 -22 -9 -65 -14 -95 -5 -30 -11 -77 -14 -105 -7 -60 -35 -296 -41 -345
-2 -19 -7 -60 -10 -90 -5 -48 -13 -121 -30 -260 -2 -19 -7 -62 -10 -94 -4 -33
-8 -67 -10 -75 -1 -9 -6 -52 -10 -96 -4 -44 -9 -89 -11 -100 -4 -19 -15 -142
-18 -194 -1 -14 -6 -26 -11 -27 -138 -39 -163 -55 -170 -105 -9 -71 47 -126
120 -117 40 5 38 10 34 -97 -6 -166 -4 -572 4 -627 23 -168 122 -319 227 -346
72 -18 182 4 234 47 44 38 61 107 39 161 -19 46 -49 78 -84 85 -41 9 -47 22
-53 115 -12 171 -3 666 12 682 4 4 32 9 62 12 117 10 281 54 444 118 54 21
100 37 103 35 3 -4 -1 -43 -22 -212 -2 -16 -6 -57 -10 -90 -4 -33 -8 -71 -11
-85 -2 -14 -6 -61 -10 -105 -3 -44 -7 -91 -10 -105 -6 -35 -5 -233 2 -305 9
-98 72 -158 158 -150 56 5 103 42 120 95 13 41 18 59 31 128 2 13 6 31 9 40 2
9 8 49 11 87 4 39 9 84 10 100 6 55 19 241 30 415 3 52 8 120 10 150 2 30 7
92 10 138 5 65 12 92 31 119 28 42 32 108 9 153 -21 41 -21 46 1 440 2 41 6
147 8 235 5 146 7 238 21 738 4 126 1 178 -14 255 -10 53 -18 114 -18 134 2
67 -66 104 -107 59z m-861 -141 c3 -5 2 -10 -4 -10 -5 0 -13 5 -16 10 -3 6 -2
10 4 10 5 0 13 -4 16 -10z"/>
<path d="M2310 2231 c-8 -5 -34 -27 -57 -49 -37 -33 -43 -45 -43 -78 1 -48 17
-79 56 -105 61 -40 147 -14 173 54 10 26 13 118 5 149 -8 30 -99 49 -134 29z"/>
<path d="M2244 1543 c-59 -61 -114 -200 -159 -403 -2 -8 -10 -44 -19 -80 -8
-36 -17 -78 -20 -95 -3 -16 -7 -40 -10 -53 -18 -79 -28 -195 -24 -275 3 -79 8
-100 31 -139 39 -67 78 -91 152 -96 68 -4 120 15 162 60 68 72 61 182 -14 241
-20 16 -23 25 -19 65 8 72 15 160 20 237 3 39 8 113 12 165 10 142 11 161 1
210 -15 79 -15 95 1 106 20 15 18 65 -4 81 -33 24 -70 16 -110 -24z m104 -881
c6 -18 -15 -14 -22 4 -4 10 -1 14 6 12 6 -2 14 -10 16 -16z"/>
<path d="M2929 420 c-37 -31 -44 -65 -20 -88 46 -42 74 -62 86 -62 17 0 45 27
45 45 0 12 21 25 41 25 14 0 6 -45 -11 -65 -35 -43 -97 -50 -147 -18 -23 15
-33 8 -27 -19 2 -10 5 -25 7 -33 6 -27 58 -73 106 -94 39 -16 54 -18 90 -10
83 18 136 82 134 161 -1 52 -39 107 -73 106 -15 -1 -46 14 -74 36 -26 20 -51
36 -54 37 -48 8 -76 2 -103 -21z"/>
<path d="M3128 383 c7 -3 16 -2 19 1 4 3 -2 6 -13 5 -11 0 -14 -3 -6 -6z"/>
</g>
</svg>
