<?xml version="1.0" encoding="UTF-8" standalone="no"?>
<!DOCTYPE svg PUBLIC "-//W3C//DTD SVG 1.1//EN" "http://www.w3.org/Graphics/SVG/1.1/DTD/svg11.dtd">
<svg width="100%" height="100%" viewBox="0 0 944 288" version="1.1" xmlns="http://www.w3.org/2000/svg" xmlns:xlink="http://www.w3.org/1999/xlink" xml:space="preserve" style="fill-rule:evenodd;clip-rule:evenodd;stroke-linejoin:round;stroke-miterlimit:2;">
    <style>
        path {
            fill: #251434;
        }
        @media (prefers-color-scheme: dark) {
            path { fill: white; }
        }
    </style>

    <path id="curve1"
        d="M49.397,33.885c-0.684,6.286 -1.079,12.459 -1.448,18.658c-0.609,10.245 -0.949,20.417 -1.071,30.931l-3.443,99.268c-0.026,2.481 -0.497,13.247 0.583,21.806c0.156,1.24 0.18,2.433 0.407,3.511c0.025,0.119 0.021,0.264 0.002,0.419c3.147,0.16 6.11,1.997 7.558,5.039c2.102,4.414 0.225,9.704 -4.189,11.805c-2.9,1.865 -5.731,2.002 -8.178,2.156c-6.385,0.403 -11.703,-4.045 -15.203,-11.754c-4.583,-10.095 -3.275,-29.463 -3.303,-33.198c0.346,-13.481 1.119,-27.023 2.434,-40.547c1.939,-19.934 4.823,-39.78 6.835,-59.557c1.004,-8.92 1.973,-17.608 3.429,-26.242c1.469,-8.719 3.362,-17.288 5.679,-26.038c0.788,-2.871 1.086,-7.797 2.718,-9.908c1.446,-1.869 3.21,-3.152 5.819,-2.774c1.134,0.164 3.766,0.862 4.232,4.084c0.324,2.239 -0.125,8.183 -0.124,8.567c0.15,1.785 -1.044,3.376 -2.737,3.774Zm-5.087,175.196c-0.092,0.398 -0.162,0.7 0.058,0.572c0.457,-0.265 0.355,-0.457 -0.058,-0.572Zm0.83,-183.826c-0.119,-1.194 -0.424,-2.051 -1.096,-1.84c-1.327,0.416 -0.222,1.234 1.096,1.84Z" />

    <path id="curve2"
        d="M103.193,20.732c0.641,3.604 2.313,9.534 2.523,12.531l-0.367,16.513l-1.173,42.573c-0.782,23.041 -2.225,46.03 -4.043,68.995c-0.96,12.13 -1.303,24.321 -2.998,36.351c-0.43,3.056 -1.275,5.949 -1.892,8.972c-0.308,4.836 -4.485,8.513 -9.321,8.204c-4.837,-0.308 -8.513,-4.485 -8.205,-9.321c-0.207,-3.521 -0.596,-6.962 -0.544,-10.491c0.119,-8.081 1.241,-16.123 2.106,-24.168c2.851,-26.528 6.874,-52.934 9.296,-79.537l4.243,-42.377l1.733,-16.426c0.795,-3.949 0.434,-13.619 1.469,-15.516c0.896,-1.642 1.894,-2.532 3.091,-2.558c0.901,-0.02 2.793,-0.239 4.109,2.031c1.006,1.26 0.956,3.025 -0.027,4.224Z" />

    <path id="curve3"
        d="M18.764,162.139c-3.274,0.449 -6.295,-1.844 -6.744,-5.117c-0.449,-3.273 1.844,-6.295 5.117,-6.744c11.152,-2.88 21.396,-6.715 31.906,-10.185c6.869,-2.268 13.745,-4.369 20.579,-6.864c7.139,-2.605 14.352,-5.229 21.479,-8.698c4.51,-2.434 10.149,-0.749 12.583,3.762c2.434,4.51 0.749,10.148 -3.761,12.583c-12.808,7.364 -25.575,13.601 -39.186,17.13c-6.855,1.778 -13.853,2.668 -20.99,3.319c-6.936,0.632 -13.81,0.765 -20.983,0.814Z" />

    <path id="curve4"
        d="M143.615,143.994c0.47,-0.006 1.486,0.588 1.013,0.492c-1.5,-0.305 0.431,3.31 0.585,5.11c0.175,2.056 0.284,3.742 0.312,4.358c-0.021,0.292 -0.977,11.073 -1.525,22.163c-0.207,4.18 -1.047,9.654 -1.168,13.439c1.015,0.533 1.952,1.257 2.754,2.168c3.519,3.998 3.13,10.101 -0.868,13.62c-3.412,4.027 -7.398,3.664 -10.093,3.65c-3.833,-0.02 -7.651,-2.646 -9.869,-8.342c-1.285,-3.3 -1.241,-9.968 -0.116,-17.473c2.043,-13.624 6.974,-31.04 7.066,-31.415c0.502,-1.174 1.912,-6.445 4.345,-9.715c2.1,-2.823 3.89,-4.893 6.161,-4.622c1.821,-0.348 3.581,0.848 3.929,2.668c0.339,1.773 -0.785,3.489 -2.526,3.899Zm-0.762,47.547c0.119,1.72 0.556,2.706 1.56,2.41c1.4,-0.414 -0.054,-1.471 -1.56,-2.41Z" />

    <path
        d="M149.741,103.712c0.107,0.042 0.148,0.121 0.041,0.246c-0.249,0.291 0.602,-0.205 0.778,0.202c0.272,0.63 0.059,1.501 0.063,2.465c-0.256,4.023 -3.731,7.082 -7.755,6.825c-4.023,-0.256 -7.081,-3.731 -6.825,-7.755c0.121,-0.918 -0.072,-1.784 0.258,-2.354c0.454,-0.785 0.285,-1.005 1.005,-1.275c2.102,-0.787 -0.114,-0.226 1.743,-0.908c0.389,-0.143 0.236,-0.589 0.539,-0.829c0.419,-0.331 0.448,-0.902 0.882,-1.173c0.562,-0.352 0.843,-0.962 1.53,-1.146c1.223,-0.328 2.866,-1.156 5.733,-0.074c1.846,0.17 3.207,1.806 3.037,3.652c-0.077,0.842 -0.46,1.583 -1.029,2.124Zm-2.328,0.927c-0.098,-0.001 -0.196,-0.005 -0.295,-0.014c-0.341,0.052 -0.656,0.305 -0.897,0.467c0.218,0.057 0.45,0.111 0.52,0.005c0.136,-0.203 0.406,-0.338 0.672,-0.458Z" />

    <path
        d="M172.794,179.098c-1.594,0.944 -3.656,0.416 -4.6,-1.179c-0.945,-1.595 -0.416,-3.656 1.178,-4.6c2.348,-2.752 5.097,-1.666 8.082,-0.623c3.921,1.372 6.997,6.847 8.526,9.161c2.265,4.93 2.679,9.728 2.546,14.54c-0.165,5.926 -1.96,11.735 -2.974,17.924c-1.307,5.226 -6.611,8.408 -11.837,7.102c-5.226,-1.307 -8.408,-6.61 -7.102,-11.836c1.795,-5.281 4.205,-10.1 5.351,-15.246c0.569,-2.551 1.173,-5.116 0.551,-7.996c-0.087,-1.222 0.231,-3.745 -0.646,-5.547c-0.363,-0.746 1.777,-1.877 0.925,-1.7Z" />

    <path
        d="M290.475,65.397c0.257,0.1 0.607,0.193 0.936,0.267c-0.341,-0.114 -0.656,-0.283 -0.935,-0.495c-0.006,-0.182 -0.043,-0.295 -0.163,-0.25c-0.032,0.013 -0.061,0.026 -0.087,0.038c-0.681,-0.636 -1.084,-1.56 -1.026,-2.563c0.105,-1.789 1.643,-3.157 3.432,-3.052c1.618,-0.052 4.439,3.002 5.622,8.652c1.896,9.058 2.781,25.497 2.842,26.171c1.074,20.512 1.866,40.86 1.804,61.271c-0.036,12.235 -0.241,24.465 -0.909,36.696c-0.443,8.126 -1.286,16.226 -1.966,24.357c-0.292,4.983 -4.574,8.791 -9.556,8.499c-4.983,-0.291 -8.791,-4.573 -8.5,-9.556c0.272,-8.116 0.322,-16.22 0.745,-24.308c1.014,-19.415 2.516,-38.735 3.758,-58.133c0.826,-12.914 1.894,-25.771 2.545,-38.763c0.059,-0.729 2.488,-20.713 1.46,-28.168c-0.027,-0.194 -0.01,-0.445 -0.002,-0.663Zm-0,-0c-0.356,-0.14 -0.537,-0.295 -0.249,-0.44c0.08,0.075 0.163,0.145 0.25,0.212c0.003,0.068 0.001,0.145 -0.001,0.228Z" />

    <path
        d="M341.639,114.479c0.858,-1.574 2.832,-2.155 4.406,-1.297c1.573,0.859 2.154,2.833 1.296,4.406c0.714,1.525 1.146,1.007 1.323,2.689c0.043,0.407 -0.137,0.772 -0.268,1.161c-2.764,8.256 -6.418,16.403 -9.084,24.619c-1.593,3.987 -6.123,5.93 -10.109,4.336c-3.987,-1.593 -5.93,-6.123 -4.337,-10.11c3.924,-8.19 7.453,-17.034 12.909,-24.385c0.261,-0.352 0.458,-0.747 0.844,-0.953c1.522,-0.811 1.318,-0.236 3.02,-0.466Z" />

    <path
        d="M357.259,139.071c-0.086,-0.295 -0.13,-0.608 -0.128,-0.931c-1.381,-3.643 3.076,-3.768 3.556,-3.919c0.34,-0.106 1.986,0.787 3.956,3.775c0.294,0.445 0.64,0.859 0.927,1.547c1.365,3.281 2.269,9.205 2.693,12.355c1.934,-2.779 4.277,-5.396 6.839,-6.93c3.983,-2.386 8.417,-2.926 13.137,-0.581c4.036,2.004 7.007,6.572 8.596,12.67c1.297,4.981 1.755,11.194 2.011,16.262c0.081,-0.083 0.162,-0.167 0.244,-0.251c5.411,-5.591 10.648,-12.303 14.75,-16.037c2.486,-2.268 7.329,-7.039 12.078,-9.055c3.897,-1.653 7.812,-1.946 11.346,-0.465c2.727,1.115 4.865,3.224 6.067,6.335c1.628,4.213 0.728,11.892 0.617,13.649c-0.036,5.954 -2.062,15.721 -2.84,24.655c-0.214,2.464 -0.715,6.088 -0.643,8.377c-0.471,-0.27 -0.881,-0.322 -0.91,0.118c-0.036,0.531 0.34,0.719 0.968,0.691c0.135,1.103 0.499,1.652 1.257,1.163c0.345,-0.222 0.04,-0.783 -0.443,-1.281c1.448,-0.315 3.532,-1.187 5.292,-1.851l8.669,-3.737c4.027,-2.243 9.117,-0.795 11.36,3.232c2.243,4.026 0.795,9.116 -3.232,11.359l-8.78,5.985c-7.317,4.266 -13.102,5.426 -17.255,5.051c-5.182,-0.467 -8.929,-2.908 -11.451,-6.374c-3.132,-4.305 -4.767,-11.124 -3.789,-19.219c1.159,-9.598 5.191,-21.449 6.121,-28.552c-1.311,0.681 -2.544,1.281 -3.116,1.845c-4.462,4.409 -10.173,12.849 -16.155,18.833c-3.84,3.841 -7.913,6.714 -11.724,8.142c-6.408,1.943 -10.139,-0.086 -12.446,-3.226c-1.175,-1.599 -2.239,-3.672 -2.475,-6.159c-0.201,-2.114 0.134,-4.678 0.156,-5.779c0.07,-3.227 0.857,-9.332 0.521,-15.187c-0.106,-1.852 -0.357,-3.666 -0.758,-5.291c-1.337,2.048 -4.51,4.105 -5.117,5.607c-2.581,6.438 -4.039,12.38 -4.721,18.236c-1.013,8.684 -0.548,17.128 -0.625,26.42c-0.229,-0.094 -0.475,-0.189 -0.737,-0.283c-0.049,0.786 -0.22,2.471 0.405,2.378c0.106,-0.016 0.208,-0.032 0.305,-0.049c-0.012,0.688 -0.028,1.38 -0.048,2.078c-0.126,4.765 -3.103,6.242 -3.638,6.629c-3.204,2.318 -6.813,2.51 -10.529,-1.115c-0.466,-0.455 -1.616,-1.683 -2.15,-4.028c-0.255,-1.121 -0.546,-5.364 -0.385,-7.068l1.121,-10.677c0.774,-7.367 1.295,-14.554 1.589,-21.772c0.294,-7.236 0.404,-14.45 0.185,-21.875c-0.03,-1.045 -1.426,-9.228 -1.287,-13.591c0.02,-0.648 0.249,-1.076 0.323,-1.534c0.052,-0.324 0.239,-0.641 0.239,-0.641c0,0 0.02,0.024 0.054,0.066Zm14.553,71.482c1.97,0.813 2.591,1.598 -0.027,2.046c0.013,-0.686 0.021,-1.368 0.027,-2.046Zm68.653,-10.026c0.293,0.168 0.609,0.42 0.872,0.691c-0.302,0.066 -0.576,0.108 -0.814,0.118c-0.03,-0.244 -0.048,-0.516 -0.058,-0.809Zm-48.869,-21.371c-0.108,0.035 -0.219,0.076 -0.331,0.123c0.111,-0.038 0.221,-0.079 0.331,-0.123Z" />

    <path
        d="M549.712,68.68c0.05,-1.791 1.545,-3.205 3.337,-3.155c1.791,0.049 3.205,1.544 3.155,3.336c0.645,1.778 1.441,3.108 1.786,4.969c0.697,3.766 0.195,7.647 0.211,11.485c0.17,39.075 -0.883,78.47 -1.577,117.5c-0.174,9.744 -0.683,19.451 -0.813,29.136c0,5.04 -4.091,9.131 -9.131,9.131c-5.039,-0 -9.13,-4.091 -9.13,-9.131c-0.165,-8.762 -0.412,-17.554 -0.151,-26.363c0.388,-13.098 1.573,-26.193 2.595,-39.326c2.283,-29.333 4.547,-58.721 7.121,-87.888c0.143,-1.631 0.108,-3.286 0.522,-4.868c0.477,-1.822 1.337,-3.095 2.075,-4.826Z"/>

    <path
        d="M548.637,94.195c-0.97,1.025 -2.308,1.709 -3.825,1.831c-2.611,1.361 -3.903,-1.163 -4.969,-1.567c-2.136,-0.808 -1.301,-3.096 -1.813,-5.752c-0.122,-0.633 0.62,-1.093 0.755,-2.017c0.114,-0.781 1.097,-1.953 2.898,-3.981c4.207,-4.737 19.181,-13.274 20.76,-14.263c11.168,-6.246 21.925,-11.783 33.259,-15.513c11.658,-3.837 23.81,-5.766 36.878,-6.361c5.079,-0.363 9.496,3.465 9.859,8.544c0.362,5.078 -3.466,9.495 -8.544,9.858c-11.385,1.109 -21.702,3.928 -31.914,7.224c-10.383,3.35 -20.681,7.211 -31.232,12.265c-1.586,0.666 -15.585,7.785 -21.05,9.863c-0.467,0.177 -1.062,-0.131 -1.062,-0.131Zm0.985,-1.399c0.565,-0.562 0.646,-1.213 0.583,-1.861c-0.091,0.658 -0.291,1.286 -0.583,1.861Zm0.357,-4.477c0.004,-0.614 -0.275,-1.071 -0.722,-1.493c0.306,0.455 0.551,0.957 0.722,1.493Zm-3.723,-3.8c-0.024,-0.022 -0.048,-0.045 -0.072,-0.067c-0.177,-0.167 -0.422,-0.171 -0.727,-0.146c0.273,0.052 0.539,0.124 0.799,0.213Z"/>

    <path
        d="M552.93,186.333c-0.981,1.5 -2.995,1.921 -4.495,0.94c-1.5,-0.98 -1.922,-2.995 -0.941,-4.495c2.654,-4.645 4.937,-8.636 7.805,-12.707c1.27,-1.803 2.612,-3.572 4.249,-5.41c2.403,-2.673 4.137,-4.202 5.966,-5.644c1.813,-1.431 3.756,-2.546 6.7,-4.355c15.668,-8.478 26.132,-3.431 32.737,5.717c7.804,10.81 8.657,30.914 6.951,43.684c-0.673,4.713 -5.046,7.992 -9.758,7.319c-4.712,-0.673 -7.992,-5.046 -7.318,-9.758c1.412,-9.285 1.497,-23.779 -3.622,-32.041c-2.444,-3.944 -6.551,-5.486 -13.374,-2.817c-2.723,0.896 -4.512,1.4 -6.256,2.193c-1.653,0.753 -3.26,1.569 -5.59,3.128c-2.86,1.912 -5.21,3.736 -7.166,6.021c-2.124,2.482 -3.81,5.288 -5.888,8.225Z"/>

    <path
        d="M606.279,119.323c0.351,0.439 0.588,0.939 0.712,1.461c-0.012,-0.342 -0.095,-0.756 -0.383,-1.166c0.297,0.265 0.571,0.509 0.762,0.671c1.53,0.933 2.014,2.933 1.08,4.463c-0.934,1.53 -2.934,2.014 -4.464,1.081c-0.241,-0.1 -0.684,-0.296 -1.122,-0.491c-0.781,-0.105 -1.536,-0.457 -2.136,-1.058c-1.127,-1.542 -1.226,-2.537 -1.179,-2.818c0.342,-2.049 0.96,-3.756 3.312,-3.644c0.313,0.015 1.239,-0.27 2.223,0.466c0.215,0.162 0.703,0.595 1.195,1.035Zm-0,0c-0.086,-0.107 -0.179,-0.211 -0.279,-0.311c0.266,0.194 0.463,0.4 0.608,0.606c-0.108,-0.096 -0.219,-0.196 -0.329,-0.295Z"/>

    <path
        d="M668.509,66.78c0.147,-1.787 1.717,-3.117 3.504,-2.969c1.786,0.148 3.116,1.718 2.969,3.504c0.684,2.923 1.687,5.332 2.078,8.299c0.837,6.351 0.359,12.741 0.455,19.126c0.209,14.003 -0.092,27.958 -1.681,42.079c-1.82,15.041 -4.017,29.988 -6.028,44.952c-1.28,9.529 -2.691,19.034 -2.884,28.732c0,5.486 -4.453,9.94 -9.939,9.94c-5.485,-0 -9.939,-4.454 -9.939,-9.94c-0.212,-10.66 0.331,-21.232 1.885,-31.687c2.236,-15.042 6.264,-29.772 9.12,-44.763c2.354,-11.949 3.341,-23.884 4.536,-35.826c0.827,-8.264 0.725,-16.672 2.966,-24.701c0.7,-2.51 1.876,-4.368 2.958,-6.746Z"/>

    <path
        d="M705.638,148.699c0.778,-1.615 2.721,-2.293 4.336,-1.514c1.614,0.778 2.292,2.721 1.514,4.336c-1.868,5.48 -2.872,11.976 -3.539,18.836c-0.469,4.822 -0.473,9.682 -0.624,14.455c-0.159,5.052 -0.345,9.894 -0.149,14.202c-0,4.449 -3.613,8.062 -8.063,8.062c-4.45,0 -8.063,-3.613 -8.063,-8.062c0.561,-7.763 1.708,-17.057 4.216,-26.04c2.54,-9.091 6.134,-17.645 10.372,-24.275Z" />

    <path
        d="M718.031,104.643c0.061,-0.174 0.127,-0.31 0.127,-0.31c0,0 0.31,-0.27 0.54,-0.137c1.6,3.199 0.301,7.096 -2.898,8.696c-3.2,1.6 -7.097,0.301 -8.697,-2.899c0.411,-3.429 -0.771,-4.509 -0.031,-5.3c1.869,-1.996 1.322,-4.503 3.457,-4.13c0.443,0.078 0.677,-0.484 1.131,-0.301c0.709,0.285 1.477,-0.54 2.228,0.181c0.898,0.863 2.221,1.651 3.041,3.207c0.455,0.25 0.825,0.593 1.102,0.993Zm-2.981,5.086c-0.426,-0.041 -0.852,-0.168 -1.251,-0.388c-0.825,0.067 -2.013,0.723 -2.013,0.723c-0,-0 1.745,0.839 2.21,0.319c0.3,-0.336 0.674,-0.523 1.054,-0.654Z"/>

    <path
        d="M776.118,148.008c0.054,0.002 0.068,0.003 -0,-0Zm-0.135,-0.002c0.048,-0.001 0.091,0 0.124,0.001c-0.051,-0.001 -0.096,0.002 -0.135,0.011c-0.07,0.077 -0.145,0.151 -0.223,0.221c-0.201,0.782 1.35,3.408 1.313,5.914c-0.167,11.085 -3.732,30.465 -4.045,33.146l-8.493,83.521c-0.313,4.394 -4.136,7.707 -8.53,7.393c-4.395,-0.314 -7.707,-4.136 -7.393,-8.531c0.663,-14.245 0.964,-28.396 2.228,-42.483c1.276,-14.228 3.514,-28.34 6.131,-42.514c0.566,-2.704 3.995,-22.519 7.2,-33.402c0.159,-0.541 0.247,-1.087 0.495,-1.545c2.516,-4.645 4.722,-6.654 5.934,-6.979c2.262,-0.608 3.658,-1.791 4.649,-0.139c0.316,0.527 1.276,0.732 1.274,1.817c0.578,1.222 0.325,2.625 -0.529,3.569Zm-1.978,1.039c-0.382,0.05 -0.767,0.032 -1.135,-0.051c0.423,0.239 0.773,0.282 1.135,0.051Z"/>

    <path
        d="M755.206,139.848c-0.004,1.792 -1.463,3.244 -3.255,3.24c-1.793,-0.004 -3.244,-1.463 -3.24,-3.255c-1.484,-11.667 3.524,-20.293 11.611,-26.195c10.202,-7.446 26.251,-9.363 41.381,-6.807c27.587,4.66 50.617,25.376 42.828,52.983c-1.632,5.739 -4.52,11.047 -8.035,16.027c-4.508,6.386 -10.161,12.173 -15.086,17.692c-4.93,5.526 -10.458,10.467 -16.723,14.088c-4.57,2.642 -9.555,4.537 -15.003,5.517c-5.682,0.947 -11.063,-2.897 -12.01,-8.579c-0.947,-5.681 2.897,-11.063 8.578,-12.01c3.853,-0.591 7.302,-2.048 10.437,-4.058c3.635,-2.33 6.904,-5.296 9.925,-8.509c4.584,-4.877 9.88,-9.933 14.114,-15.597c2.337,-3.125 4.391,-6.408 5.541,-10.05c5.314,-16.711 -11.372,-26.802 -27.993,-30.838c-11.142,-2.706 -22.802,-2.831 -31.311,1.251c-6.029,2.893 -10.733,7.312 -11.759,15.1Z"/>

    <path
        d="M925.43,24.69c0.407,-1.49 1.948,-2.368 3.438,-1.961c1.49,0.408 2.368,1.949 1.96,3.438c0.323,2.949 1.137,5.255 0.988,8.219c-0.128,2.556 -1.104,4.995 -1.652,7.497c-9.921,45.244 -15.053,91.907 -23.35,137.406c-0.915,4.575 -5.373,7.547 -9.948,6.632c-4.576,-0.915 -7.548,-5.373 -6.633,-9.948c8.733,-40.25 14.645,-81.591 24.259,-121.778c1.704,-7.122 3.287,-14.275 5.54,-21.224c0.293,-0.905 0.521,-1.831 0.985,-2.66c1.268,-2.265 2.792,-3.596 4.413,-5.621Z"/>

    <path
        d="M886.927,235.395c1.609,-0.026 3.243,0.419 4.682,1.379c3.776,2.517 4.798,7.627 2.281,11.403c-0.547,2.037 -2.368,2.506 -3.318,3.589c-0.937,1.07 -2.339,0.798 -3.493,1.356c-2.694,1.302 -5.784,-0.279 -9.169,-2.625c-1.033,-0.716 -2.271,-1.779 -2.696,-3.19c-0.569,-1.888 -1.171,-4.199 0.111,-4.261c0.231,-0.011 0.458,0.012 0.486,0.147c0.106,0.509 0.756,0.305 0.864,0.653c0.313,1.005 1.5,0.363 1.941,0.945c0.282,0.371 0.814,-0.116 1.06,0.225c0.894,1.243 1.4,-1.198 2.302,-0.149c0.376,0.436 0.255,-0.629 0.639,-0.202c0.476,0.528 0.211,-0.811 0.759,-0.344c1.005,0.857 0.011,-1.547 1.292,-0.925c0.427,0.207 -0.07,-0.582 0.395,-0.407c0.959,0.362 -0.439,-1.232 0.735,-1.052c0.479,0.073 -0.281,-0.566 0.25,-0.537c0.801,0.043 -0.737,-0.894 0.266,-1.019c0.436,-0.055 0.12,-0.05 0.01,-0.562c-0.276,-1.276 0.725,-2.37 -3.025,-0.197c0.224,1.528 -0.834,2.952 -2.362,3.176c-1.528,0.225 -2.951,-0.833 -3.176,-2.361c-3.982,-0.931 -1.123,-0.807 -2.848,-1.533c-0.849,-0.358 0.256,-0.53 -0.32,-0.867c-1.276,-0.748 0.834,-0.751 0.091,-1.442c-0.947,-0.88 1.091,-0.408 0.499,-1.252c-0.302,-0.431 0.555,-0.078 0.313,-0.503c-0.677,-1.185 1.334,0.046 0.994,-1.106c-0.111,-0.38 0.437,0.09 0.354,-0.287c-0.166,-0.761 0.807,0.267 0.75,-0.483c-0.08,-1.03 0.983,0.537 1.093,-0.475c0.147,-1.356 0.869,0.913 1.578,-0.309c0.149,-0.257 0.369,0.184 0.608,-0.007c0.347,-0.277 0.677,0.326 1.124,0.142c0.603,-0.249 0.869,0.672 1.675,0.593c0.783,-0.077 0.942,1.194 2.474,1.844c0.281,0.119 0.503,0.361 0.781,0.643Zm0.027,0.027c0.259,0.262 0.568,0.555 1.015,0.815c0.902,0.524 2.138,1.62 2.914,0.748c0.623,-0.699 -1.667,-0.476 -2.187,-0.891c-0.584,-0.467 -1.159,-0.657 -1.742,-0.672Zm-4.903,1.662c-0.122,0.038 -0.246,0.075 -0.371,0.109c-0.411,0.112 -0.576,0.541 -0.812,0.998c0.362,-0.413 0.759,-0.783 1.183,-1.107Z"/>
</svg>